<?xml version="1.0" encoding="UTF-8" standalone="no"?>
<!--
  - SPDX-License-Identifier: Apache-2.0
  -
  - Copyright 2022 Gerrit Grunwald.
  -
  - Licensed under the Apache License, Version 2.0 (the "License");
  - you may not use this file except in compliance with the License.
  - You may obtain a copy of the License at
  -
  -     https://www.apache.org/licenses/LICENSE-2.0
  -
  - Unless required by applicable law or agreed to in writing, software
  - distributed under the License is distributed on an "AS IS" BASIS,
  - WITHOUT WARRANTIES OR CONDITIONS OF ANY KIND, either express or implied.
  - See the License for the specific language governing permissions and
  - limitations under the License.
  -->

<!DOCTYPE svg PUBLIC "-//W3C//DTD SVG 1.1//EN" "http://www.w3.org/Graphics/SVG/1.1/DTD/svg11.dtd">
<svg width="57px" height="57px" version="1.1" xmlns="http://www.w3.org/2000/svg" xmlns:xlink="http://www.w3.org/1999/xlink" xml:space="preserve" xmlns:serif="http://www.serif.com/" style="fill-rule:evenodd;clip-rule:evenodd;stroke-linejoin:round;stroke-miterlimit:2;">
    <path d="M7.743,54.287l41.48,-0c1.613,-0 2.995,-0.346 4.147,-1.037c1.153,-0.692 2.046,-1.619 2.679,-2.783c0.634,-1.164 0.951,-2.483 0.951,-3.958c-0,-0.622 -0.092,-1.262 -0.277,-1.918c-0.184,-0.657 -0.449,-1.285 -0.795,-1.884l-20.774,-36.053c-0.737,-1.29 -1.705,-2.27 -2.904,-2.938c-1.198,-0.668 -2.454,-1.003 -3.767,-1.003c-1.314,0 -2.57,0.335 -3.768,1.003c-1.198,0.668 -2.155,1.648 -2.869,2.938l-20.774,36.053c-0.715,1.221 -1.072,2.489 -1.072,3.802c0,1.475 0.311,2.794 0.933,3.958c0.622,1.164 1.515,2.091 2.679,2.783c1.164,0.691 2.541,1.037 4.131,1.037Zm0.034,-4.874c-0.829,-0 -1.503,-0.294 -2.022,-0.882c-0.518,-0.587 -0.777,-1.261 -0.777,-2.022c-0,-0.207 0.023,-0.438 0.069,-0.691c0.046,-0.254 0.138,-0.496 0.276,-0.726l20.74,-36.087c0.254,-0.461 0.605,-0.807 1.054,-1.037c0.45,-0.231 0.905,-0.346 1.366,-0.346c0.484,-0 0.939,0.115 1.365,0.346c0.426,0.23 0.778,0.576 1.054,1.037l20.74,36.121c0.231,0.438 0.346,0.899 0.346,1.383c-0,0.761 -0.259,1.435 -0.778,2.022c-0.518,0.588 -1.204,0.882 -2.057,0.882l-41.376,-0Zm20.74,-4.494c0.83,0 1.562,-0.294 2.195,-0.881c0.634,-0.588 0.951,-1.308 0.951,-2.161c-0,-0.875 -0.311,-1.601 -0.933,-2.177c-0.623,-0.577 -1.36,-0.865 -2.213,-0.865c-0.875,0 -1.624,0.294 -2.247,0.882c-0.622,0.587 -0.933,1.308 -0.933,2.16c0,0.83 0.317,1.544 0.951,2.143c0.633,0.599 1.377,0.899 2.229,0.899Zm0,-9.056c1.521,-0 2.293,-0.795 2.316,-2.385l0.45,-14.173c0.023,-0.76 -0.237,-1.4 -0.778,-1.918c-0.542,-0.519 -1.216,-0.778 -2.022,-0.778c-0.83,0 -1.504,0.254 -2.022,0.761c-0.519,0.507 -0.767,1.14 -0.744,1.901l0.381,14.207c0.046,1.59 0.852,2.385 2.419,2.385Z" style="fill-rule:nonzero;"/>
</svg>
