<?xml version="1.0" encoding="UTF-8" standalone="no"?>
<!DOCTYPE svg PUBLIC "-//W3C//DTD SVG 1.1//EN" "http://www.w3.org/Graphics/SVG/1.1/DTD/svg11.dtd">
<svg width="22px" height="22px" version="1.1" xmlns="http://www.w3.org/2000/svg" xmlns:xlink="http://www.w3.org/1999/xlink" xml:space="preserve" xmlns:serif="http://www.serif.com/" style="fill-rule:evenodd;clip-rule:evenodd;stroke-linejoin:round;stroke-miterlimit:2;">
    <path d="M10.993,22c1.508,0 2.924,-0.286 4.25,-0.859c1.326,-0.572 2.495,-1.367 3.508,-2.385c1.013,-1.018 1.807,-2.19 2.384,-3.517c0.577,-1.327 0.865,-2.74 0.865,-4.239c0,-1.499 -0.288,-2.912 -0.865,-4.239c-0.577,-1.327 -1.374,-2.499 -2.391,-3.517c-1.017,-1.018 -2.188,-1.813 -3.514,-2.385c-1.326,-0.573 -2.743,-0.859 -4.25,-0.859c-1.499,0 -2.911,0.286 -4.237,0.859c-1.326,0.572 -2.493,1.367 -3.501,2.385c-1.008,1.018 -1.8,2.19 -2.377,3.517c-0.577,1.327 -0.865,2.74 -0.865,4.239c-0,1.499 0.288,2.912 0.865,4.239c0.577,1.327 1.371,2.499 2.384,3.517c1.013,1.018 2.182,1.813 3.508,2.385c1.326,0.573 2.738,0.859 4.236,0.859Zm-5.421,-6.434c-0.282,0 -0.511,-0.081 -0.688,-0.245c-0.177,-0.164 -0.266,-0.382 -0.266,-0.654c-0,-0.255 0.089,-0.464 0.266,-0.627c0.177,-0.164 0.406,-0.246 0.688,-0.246l10.884,0c0.281,0 0.511,0.082 0.688,0.246c0.177,0.163 0.265,0.372 0.265,0.627c0,0.272 -0.088,0.49 -0.265,0.654c-0.177,0.164 -0.407,0.245 -0.688,0.245l-10.884,0Zm-0,-3.68c-0.282,-0 -0.511,-0.08 -0.688,-0.239c-0.177,-0.159 -0.266,-0.374 -0.266,-0.647c-0,-0.273 0.089,-0.488 0.266,-0.647c0.177,-0.159 0.406,-0.239 0.688,-0.239l10.884,0c0.281,0 0.511,0.08 0.688,0.239c0.177,0.159 0.265,0.374 0.265,0.647c0,0.273 -0.088,0.488 -0.265,0.647c-0.177,0.159 -0.407,0.239 -0.688,0.239l-10.884,-0Zm-0,-3.68c-0.282,-0 -0.511,-0.08 -0.688,-0.239c-0.177,-0.159 -0.266,-0.37 -0.266,-0.634c-0,-0.272 0.089,-0.49 0.266,-0.654c0.177,-0.164 0.406,-0.245 0.688,-0.245l10.884,-0c0.281,-0 0.511,0.081 0.688,0.245c0.177,0.164 0.265,0.382 0.265,0.654c0,0.264 -0.088,0.475 -0.265,0.634c-0.177,0.159 -0.407,0.239 -0.688,0.239l-10.884,-0Z" style="fill:#007aff;fill-rule:nonzero;"/>
</svg>
