<?xml version="1.0" encoding="UTF-8" standalone="no"?>
<!DOCTYPE svg PUBLIC "-//W3C//DTD SVG 1.1//EN" "http://www.w3.org/Graphics/SVG/1.1/DTD/svg11.dtd">
<svg width="22px" height="22px" version="1.1" xmlns="http://www.w3.org/2000/svg" xmlns:xlink="http://www.w3.org/1999/xlink" xml:space="preserve" xmlns:serif="http://www.serif.com/" style="fill-rule:evenodd;clip-rule:evenodd;stroke-linejoin:round;stroke-miterlimit:2;">
    <path d="M10.993,22c1.508,0 2.924,-0.286 4.25,-0.859c1.326,-0.572 2.495,-1.367 3.508,-2.385c1.013,-1.018 1.807,-2.19 2.384,-3.517c0.577,-1.327 0.865,-2.74 0.865,-4.239c0,-1.499 -0.288,-2.912 -0.865,-4.239c-0.577,-1.327 -1.374,-2.499 -2.391,-3.517c-1.017,-1.018 -2.188,-1.813 -3.514,-2.385c-1.326,-0.573 -2.743,-0.859 -4.25,-0.859c-1.499,0 -2.911,0.286 -4.237,0.859c-1.326,0.572 -2.493,1.367 -3.501,2.385c-1.008,1.018 -1.8,2.19 -2.377,3.517c-0.577,1.327 -0.865,2.74 -0.865,4.239c-0,1.499 0.288,2.912 0.865,4.239c0.577,1.327 1.371,2.499 2.384,3.517c1.013,1.018 2.182,1.813 3.508,2.385c1.326,0.573 2.738,0.859 4.236,0.859Zm-4.999,-10.496c-0,-0.917 0.222,-1.744 0.667,-2.48c0.445,-0.737 1.029,-1.323 1.751,-1.759c0.722,-0.436 1.496,-0.654 2.322,-0.654l0.123,-0l-0.559,-0.586c-0.063,-0.064 -0.115,-0.146 -0.156,-0.246c-0.041,-0.1 -0.061,-0.204 -0.061,-0.313c-0,-0.218 0.074,-0.404 0.224,-0.559c0.15,-0.154 0.339,-0.232 0.566,-0.232c0.099,0 0.199,0.021 0.299,0.062c0.1,0.041 0.182,0.097 0.245,0.17l2.085,2.113c0.136,0.145 0.209,0.334 0.218,0.566c0.009,0.231 -0.064,0.42 -0.218,0.565l-2.098,2.072c-0.155,0.164 -0.332,0.245 -0.531,0.245c-0.227,0 -0.416,-0.077 -0.566,-0.231c-0.15,-0.155 -0.224,-0.341 -0.224,-0.559c-0,-0.218 0.072,-0.4 0.217,-0.545l0.872,-0.859c-0.045,-0.009 -0.104,-0.014 -0.177,-0.014c-0.608,0 -1.16,0.148 -1.655,0.443c-0.495,0.296 -0.89,0.693 -1.185,1.193c-0.295,0.5 -0.443,1.054 -0.443,1.663c0,0.609 0.148,1.161 0.443,1.656c0.295,0.495 0.69,0.891 1.185,1.186c0.495,0.295 1.047,0.443 1.655,0.443c0.609,-0 1.16,-0.148 1.655,-0.443c0.495,-0.295 0.888,-0.691 1.179,-1.186c0.29,-0.495 0.436,-1.047 0.436,-1.656c-0,-0.236 0.086,-0.439 0.258,-0.607c0.173,-0.168 0.377,-0.252 0.613,-0.252c0.227,0 0.427,0.084 0.6,0.252c0.172,0.168 0.259,0.371 0.259,0.607c-0,0.918 -0.225,1.756 -0.675,2.515c-0.449,0.759 -1.053,1.365 -1.812,1.819c-0.758,0.455 -1.596,0.682 -2.513,0.682c-0.926,-0 -1.766,-0.227 -2.52,-0.682c-0.754,-0.454 -1.355,-1.065 -1.805,-1.833c-0.449,-0.768 -0.674,-1.62 -0.674,-2.556Z" style="fill:#007aff;fill-rule:nonzero;"/>
</svg>
