<?xml version="1.0" encoding="UTF-8" standalone="no"?>
<!DOCTYPE svg PUBLIC "-//W3C//DTD SVG 1.1//EN" "http://www.w3.org/Graphics/SVG/1.1/DTD/svg11.dtd">
<svg width="14px" height="14px" version="1.1" xmlns="http://www.w3.org/2000/svg" xmlns:xlink="http://www.w3.org/1999/xlink" xml:space="preserve" xmlns:serif="http://www.serif.com/" style="fill-rule:evenodd;clip-rule:evenodd;stroke-linejoin:round;stroke-miterlimit:2;">
    <path d="M1.302,4.205l1.502,0c0.406,0 0.725,-0.118 0.955,-0.355c0.231,-0.236 0.346,-0.564 0.346,-0.983l0,-1.429c0,-0.418 -0.115,-0.746 -0.346,-0.983c-0.23,-0.237 -0.549,-0.355 -0.955,-0.355l-1.502,0c-0.413,0 -0.733,0.118 -0.961,0.355c-0.227,0.237 -0.341,0.565 -0.341,0.983l0,1.429c0,0.419 0.114,0.747 0.341,0.983c0.228,0.237 0.548,0.355 0.961,0.355Zm0.154,-1.101c-0.23,0 -0.345,-0.127 -0.345,-0.382l-0,-1.147c-0,-0.243 0.115,-0.364 0.345,-0.364l1.184,-0c0.236,-0 0.355,0.121 0.355,0.364l-0,1.147c-0,0.255 -0.119,0.382 -0.355,0.382l-1.184,0Zm4.788,1.101l1.512,0c0.406,0 0.723,-0.118 0.951,-0.355c0.227,-0.236 0.341,-0.564 0.341,-0.983l0,-1.429c0,-0.418 -0.114,-0.746 -0.341,-0.983c-0.228,-0.237 -0.545,-0.355 -0.951,-0.355l-1.512,0c-0.412,0 -0.731,0.118 -0.955,0.355c-0.225,0.237 -0.337,0.565 -0.337,0.983l-0,1.429c-0,0.419 0.112,0.747 0.337,0.983c0.224,0.237 0.543,0.355 0.955,0.355Zm0.155,-1.101c-0.23,0 -0.346,-0.127 -0.346,-0.382l0,-1.147c0,-0.243 0.116,-0.364 0.346,-0.364l1.193,-0c0.23,-0 0.346,0.121 0.346,0.364l-0,1.147c-0,0.255 -0.116,0.382 -0.346,0.382l-1.193,0Zm4.797,1.101l1.511,0c0.407,0 0.724,-0.118 0.952,-0.355c0.227,-0.236 0.341,-0.564 0.341,-0.983l0,-1.429c0,-0.418 -0.114,-0.746 -0.341,-0.983c-0.228,-0.237 -0.545,-0.355 -0.952,-0.355l-1.511,0c-0.406,0 -0.725,0.118 -0.955,0.355c-0.231,0.237 -0.346,0.565 -0.346,0.983l-0,1.429c-0,0.419 0.115,0.747 0.346,0.983c0.23,0.237 0.549,0.355 0.955,0.355Zm0.155,-1.101c-0.231,0 -0.346,-0.127 -0.346,-0.382l0,-1.147c0,-0.243 0.115,-0.364 0.346,-0.364l1.193,-0c0.23,-0 0.345,0.121 0.345,0.364l0,1.147c0,0.255 -0.115,0.382 -0.345,0.382l-1.193,0Zm-10.049,5.944l1.502,0c0.406,0 0.725,-0.115 0.955,-0.346c0.231,-0.23 0.346,-0.555 0.346,-0.974l0,-1.447c0,-0.419 -0.115,-0.745 -0.346,-0.979c-0.23,-0.233 -0.549,-0.35 -0.955,-0.35l-1.502,-0c-0.413,-0 -0.733,0.117 -0.961,0.35c-0.227,0.234 -0.341,0.56 -0.341,0.979l-0,1.447c-0,0.419 0.114,0.744 0.341,0.974c0.228,0.231 0.548,0.346 0.961,0.346Zm0.154,-1.101c-0.23,-0 -0.345,-0.125 -0.345,-0.374l-0,-1.156c-0,-0.236 0.115,-0.355 0.345,-0.355l1.184,0c0.236,0 0.355,0.119 0.355,0.355l-0,1.156c-0,0.249 -0.119,0.374 -0.355,0.374l-1.184,-0Zm4.788,1.101l1.512,0c0.406,0 0.723,-0.115 0.951,-0.346c0.227,-0.23 0.341,-0.555 0.341,-0.974l0,-1.447c0,-0.419 -0.114,-0.745 -0.341,-0.979c-0.228,-0.233 -0.545,-0.35 -0.951,-0.35l-1.512,-0c-0.412,-0 -0.731,0.117 -0.955,0.35c-0.225,0.234 -0.337,0.56 -0.337,0.979l-0,1.447c-0,0.419 0.112,0.744 0.337,0.974c0.224,0.231 0.543,0.346 0.955,0.346Zm0.155,-1.101c-0.23,-0 -0.346,-0.125 -0.346,-0.374l0,-1.156c0,-0.236 0.116,-0.355 0.346,-0.355l1.193,0c0.23,0 0.346,0.119 0.346,0.355l-0,1.156c-0,0.249 -0.116,0.374 -0.346,0.374l-1.193,-0Zm4.797,1.101l1.511,0c0.407,0 0.724,-0.115 0.952,-0.346c0.227,-0.23 0.341,-0.555 0.341,-0.974l0,-1.447c0,-0.419 -0.114,-0.745 -0.341,-0.979c-0.228,-0.233 -0.545,-0.35 -0.952,-0.35l-1.511,-0c-0.406,-0 -0.725,0.117 -0.955,0.35c-0.231,0.234 -0.346,0.56 -0.346,0.979l-0,1.447c-0,0.419 0.115,0.744 0.346,0.974c0.23,0.231 0.549,0.346 0.955,0.346Zm0.155,-1.101c-0.231,-0 -0.346,-0.125 -0.346,-0.374l0,-1.156c0,-0.236 0.115,-0.355 0.346,-0.355l1.193,0c0.23,0 0.345,0.119 0.345,0.355l0,1.156c0,0.249 -0.115,0.374 -0.345,0.374l-1.193,-0Zm-10.049,5.953l1.502,-0c0.406,-0 0.725,-0.117 0.955,-0.351c0.231,-0.233 0.346,-0.559 0.346,-0.978l0,-1.438c0,-0.419 -0.115,-0.745 -0.346,-0.979c-0.23,-0.234 -0.549,-0.35 -0.955,-0.35l-1.502,-0c-0.413,-0 -0.733,0.116 -0.961,0.35c-0.227,0.234 -0.341,0.56 -0.341,0.979l-0,1.438c-0,0.419 0.114,0.745 0.341,0.978c0.228,0.234 0.548,0.351 0.961,0.351Zm0.154,-1.111c-0.23,0 -0.345,-0.121 -0.345,-0.364l-0,-1.156c-0,-0.243 0.115,-0.364 0.345,-0.364l1.184,0c0.236,0 0.355,0.121 0.355,0.364l-0,1.156c-0,0.243 -0.119,0.364 -0.355,0.364l-1.184,0Zm4.788,1.111l1.512,-0c0.406,-0 0.723,-0.117 0.951,-0.351c0.227,-0.233 0.341,-0.559 0.341,-0.978l0,-1.438c0,-0.419 -0.114,-0.745 -0.341,-0.979c-0.228,-0.234 -0.545,-0.35 -0.951,-0.35l-1.512,-0c-0.412,-0 -0.731,0.116 -0.955,0.35c-0.225,0.234 -0.337,0.56 -0.337,0.979l-0,1.438c-0,0.419 0.112,0.745 0.337,0.978c0.224,0.234 0.543,0.351 0.955,0.351Zm0.155,-1.111c-0.23,0 -0.346,-0.121 -0.346,-0.364l0,-1.156c0,-0.243 0.116,-0.364 0.346,-0.364l1.193,0c0.23,0 0.346,0.121 0.346,0.364l-0,1.156c-0,0.243 -0.116,0.364 -0.346,0.364l-1.193,0Zm4.797,1.111l1.511,-0c0.407,-0 0.724,-0.117 0.952,-0.351c0.227,-0.233 0.341,-0.559 0.341,-0.978l0,-1.438c0,-0.419 -0.114,-0.745 -0.341,-0.979c-0.228,-0.234 -0.545,-0.35 -0.952,-0.35l-1.511,-0c-0.406,-0 -0.725,0.116 -0.955,0.35c-0.231,0.234 -0.346,0.56 -0.346,0.979l-0,1.438c-0,0.419 0.115,0.745 0.346,0.978c0.23,0.234 0.549,0.351 0.955,0.351Zm0.155,-1.111c-0.231,0 -0.346,-0.121 -0.346,-0.364l0,-1.156c0,-0.243 0.115,-0.364 0.346,-0.364l1.193,0c0.23,0 0.345,0.121 0.345,0.364l0,1.156c0,0.243 -0.115,0.364 -0.345,0.364l-1.193,0Z" style="fill:#fff;fill-rule:nonzero;"/>
</svg>
