<?xml version="1.0" encoding="UTF-8" standalone="no"?>
<!--
  - SPDX-License-Identifier: Apache-2.0
  -
  - Copyright 2022 Gerrit Grunwald.
  -
  - Licensed under the Apache License, Version 2.0 (the "License");
  - you may not use this file except in compliance with the License.
  - You may obtain a copy of the License at
  -
  -     https://www.apache.org/licenses/LICENSE-2.0
  -
  - Unless required by applicable law or agreed to in writing, software
  - distributed under the License is distributed on an "AS IS" BASIS,
  - WITHOUT WARRANTIES OR CONDITIONS OF ANY KIND, either express or implied.
  - See the License for the specific language governing permissions and
  - limitations under the License.
  -->

<!DOCTYPE svg PUBLIC "-//W3C//DTD SVG 1.1//EN" "http://www.w3.org/Graphics/SVG/1.1/DTD/svg11.dtd">
<svg width="14px" height="14px" version="1.1" xmlns="http://www.w3.org/2000/svg" xmlns:xlink="http://www.w3.org/1999/xlink" xml:space="preserve" xmlns:serif="http://www.serif.com/" style="fill-rule:evenodd;clip-rule:evenodd;stroke-linejoin:round;stroke-miterlimit:2;">
    <path d="M0.742,8.042l2.992,-0c0.331,-0 0.531,-0.146 0.6,-0.438l1.286,-5.958l-0.6,0l1.971,11.951c0.023,0.137 0.083,0.239 0.18,0.304c0.098,0.066 0.208,0.099 0.331,0.099c0.122,0 0.234,-0.034 0.334,-0.103c0.1,-0.068 0.164,-0.168 0.193,-0.3l1.903,-9.079l-0.489,-0.009l0.575,3.027c0.063,0.337 0.266,0.506 0.608,0.506l2.632,-0c0.155,-0 0.285,-0.052 0.39,-0.155c0.106,-0.103 0.159,-0.228 0.159,-0.377c0,-0.16 -0.051,-0.291 -0.154,-0.394c-0.103,-0.103 -0.235,-0.155 -0.395,-0.155l-3.283,0l1.114,0.918l-0.951,-4.304c-0.029,-0.131 -0.092,-0.229 -0.189,-0.291c-0.097,-0.063 -0.204,-0.095 -0.321,-0.095c-0.117,0 -0.226,0.035 -0.326,0.103c-0.1,0.069 -0.164,0.172 -0.193,0.309l-1.955,8.744l0.566,0l-1.946,-11.951c-0.017,-0.131 -0.071,-0.23 -0.163,-0.295c-0.091,-0.066 -0.194,-0.099 -0.308,-0.099c-0.115,0 -0.219,0.033 -0.313,0.099c-0.095,0.065 -0.156,0.164 -0.185,0.295l-1.612,7.485l1.115,-0.918l-3.566,0c-0.155,0 -0.285,0.053 -0.391,0.159c-0.105,0.106 -0.158,0.236 -0.158,0.39c-0,0.149 0.053,0.274 0.158,0.377c0.106,0.103 0.236,0.155 0.391,0.155Z" style="fill-rule:nonzero;"/>
</svg>
