<?xml version="1.0" encoding="UTF-8" standalone="no"?>
<!DOCTYPE svg PUBLIC "-//W3C//DTD SVG 1.1//EN" "http://www.w3.org/Graphics/SVG/1.1/DTD/svg11.dtd">
<svg width="22px" height="22px" version="1.1" xmlns="http://www.w3.org/2000/svg" xmlns:xlink="http://www.w3.org/1999/xlink" xml:space="preserve" xmlns:serif="http://www.serif.com/" style="fill-rule:evenodd;clip-rule:evenodd;stroke-linejoin:round;stroke-miterlimit:2;">
    <path d="M10.993,22c1.508,0 2.924,-0.286 4.25,-0.859c1.326,-0.572 2.495,-1.367 3.508,-2.385c1.013,-1.018 1.807,-2.19 2.384,-3.517c0.577,-1.327 0.865,-2.74 0.865,-4.239c0,-1.499 -0.288,-2.912 -0.865,-4.239c-0.577,-1.327 -1.374,-2.499 -2.391,-3.517c-1.017,-1.018 -2.188,-1.813 -3.514,-2.385c-1.326,-0.573 -2.743,-0.859 -4.25,-0.859c-1.499,0 -2.911,0.286 -4.237,0.859c-1.326,0.572 -2.493,1.367 -3.501,2.385c-1.008,1.018 -1.8,2.19 -2.377,3.517c-0.577,1.327 -0.865,2.74 -0.865,4.239c-0,1.499 0.288,2.912 0.865,4.239c0.577,1.327 1.371,2.499 2.384,3.517c1.013,1.018 2.182,1.813 3.508,2.385c1.326,0.573 2.738,0.859 4.236,0.859Zm0.014,-5.861c-0.418,-0 -0.777,-0.15 -1.076,-0.45c-0.3,-0.3 -0.45,-0.659 -0.45,-1.077c0,-0.418 0.15,-0.777 0.45,-1.077c0.299,-0.3 0.658,-0.449 1.076,-0.449c0.408,-0 0.765,0.149 1.069,0.449c0.304,0.3 0.456,0.659 0.456,1.077c0,0.418 -0.152,0.777 -0.456,1.077c-0.304,0.3 -0.661,0.45 -1.069,0.45Zm-3.855,-0c-0.418,-0 -0.777,-0.15 -1.076,-0.45c-0.3,-0.3 -0.45,-0.659 -0.45,-1.077c0,-0.418 0.15,-0.777 0.45,-1.077c0.299,-0.3 0.658,-0.449 1.076,-0.449c0.417,-0 0.774,0.149 1.069,0.449c0.295,0.3 0.443,0.659 0.443,1.077c-0,0.427 -0.148,0.788 -0.443,1.084c-0.295,0.295 -0.652,0.443 -1.069,0.443Zm7.696,-0c-0.408,-0 -0.763,-0.15 -1.062,-0.45c-0.3,-0.3 -0.45,-0.659 -0.45,-1.077c0,-0.418 0.15,-0.777 0.45,-1.077c0.299,-0.3 0.654,-0.449 1.062,-0.449c0.418,-0 0.777,0.149 1.076,0.449c0.3,0.3 0.45,0.659 0.45,1.077c-0,0.418 -0.15,0.777 -0.45,1.077c-0.299,0.3 -0.658,0.45 -1.076,0.45Zm-3.841,-3.612c-0.418,-0 -0.777,-0.15 -1.076,-0.45c-0.3,-0.3 -0.45,-0.659 -0.45,-1.077c0,-0.418 0.15,-0.775 0.45,-1.07c0.299,-0.295 0.658,-0.443 1.076,-0.443c0.408,-0.009 0.765,0.136 1.069,0.436c0.304,0.3 0.456,0.659 0.456,1.077c0,0.418 -0.152,0.777 -0.456,1.077c-0.304,0.3 -0.661,0.45 -1.069,0.45Zm-3.855,-0c-0.418,-0 -0.777,-0.15 -1.076,-0.45c-0.3,-0.3 -0.45,-0.659 -0.45,-1.077c0,-0.418 0.15,-0.775 0.45,-1.07c0.299,-0.295 0.658,-0.443 1.076,-0.443c0.417,-0.009 0.774,0.136 1.069,0.436c0.295,0.3 0.443,0.659 0.443,1.077c-0,0.418 -0.148,0.777 -0.443,1.077c-0.295,0.3 -0.652,0.45 -1.069,0.45Zm7.696,-0c-0.408,-0 -0.763,-0.15 -1.062,-0.45c-0.3,-0.3 -0.45,-0.659 -0.45,-1.077c0,-0.418 0.15,-0.775 0.45,-1.07c0.299,-0.295 0.654,-0.443 1.062,-0.443c0.418,-0.009 0.777,0.136 1.076,0.436c0.3,0.3 0.45,0.659 0.45,1.077c-0,0.418 -0.15,0.777 -0.45,1.077c-0.299,0.3 -0.658,0.45 -1.076,0.45Zm-3.841,-3.599c-0.418,0 -0.777,-0.15 -1.076,-0.45c-0.3,-0.3 -0.45,-0.658 -0.45,-1.077c0,-0.427 0.15,-0.786 0.45,-1.076c0.299,-0.291 0.658,-0.441 1.076,-0.45c0.408,-0 0.765,0.148 1.069,0.443c0.304,0.295 0.456,0.656 0.456,1.083c0,0.419 -0.152,0.777 -0.456,1.077c-0.304,0.3 -0.661,0.45 -1.069,0.45Zm-3.855,0c-0.418,0 -0.777,-0.15 -1.076,-0.45c-0.3,-0.3 -0.45,-0.658 -0.45,-1.077c0,-0.418 0.15,-0.776 0.45,-1.076c0.299,-0.3 0.658,-0.45 1.076,-0.45c0.417,-0 0.774,0.15 1.069,0.45c0.295,0.3 0.443,0.658 0.443,1.076c-0,0.419 -0.148,0.777 -0.443,1.077c-0.295,0.3 -0.652,0.45 -1.069,0.45Zm7.696,0c-0.408,0 -0.763,-0.15 -1.062,-0.45c-0.3,-0.3 -0.45,-0.658 -0.45,-1.077c0,-0.427 0.15,-0.786 0.45,-1.076c0.299,-0.291 0.654,-0.441 1.062,-0.45c0.418,-0 0.777,0.148 1.076,0.443c0.3,0.295 0.45,0.656 0.45,1.083c-0,0.419 -0.15,0.777 -0.45,1.077c-0.299,0.3 -0.658,0.45 -1.076,0.45Z" style="fill:#007aff;fill-rule:nonzero;"/>
</svg>
