<?xml version="1.0" encoding="UTF-8" standalone="no"?>
<!DOCTYPE svg PUBLIC "-//W3C//DTD SVG 1.1//EN" "http://www.w3.org/Graphics/SVG/1.1/DTD/svg11.dtd">
<svg width="20px" height="20px" version="1.1" xmlns="http://www.w3.org/2000/svg" xmlns:xlink="http://www.w3.org/1999/xlink" xml:space="preserve" xmlns:serif="http://www.serif.com/" style="fill-rule:evenodd;clip-rule:evenodd;stroke-linejoin:round;stroke-miterlimit:2;">
    <path d="M9.994,19.988c1.37,-0 2.658,-0.26 3.864,-0.781c1.205,-0.52 2.268,-1.242 3.188,-2.167c0.921,-0.924 1.643,-1.989 2.168,-3.195c0.524,-1.205 0.786,-2.489 0.786,-3.851c0,-1.362 -0.262,-2.646 -0.786,-3.852c-0.525,-1.205 -1.249,-2.27 -2.174,-3.195c-0.924,-0.924 -1.989,-1.647 -3.195,-2.167c-1.205,-0.52 -2.493,-0.78 -3.864,-0.78c-1.362,0 -2.646,0.26 -3.851,0.78c-1.205,0.52 -2.266,1.243 -3.183,2.167c-0.916,0.925 -1.636,1.99 -2.161,3.195c-0.524,1.206 -0.786,2.49 -0.786,3.852c0,1.362 0.262,2.646 0.786,3.851c0.525,1.206 1.247,2.271 2.168,3.195c0.92,0.925 1.983,1.647 3.188,2.167c1.206,0.521 2.49,0.781 3.852,0.781Zm0.012,-5.325c-0.38,-0 -0.706,-0.137 -0.978,-0.409c-0.273,-0.273 -0.409,-0.599 -0.409,-0.978c0,-0.38 0.136,-0.706 0.409,-0.979c0.272,-0.272 0.598,-0.408 0.978,-0.408c0.372,-0 0.696,0.136 0.972,0.408c0.277,0.273 0.415,0.599 0.415,0.979c0,0.379 -0.138,0.705 -0.415,0.978c-0.276,0.272 -0.6,0.409 -0.972,0.409Zm-3.504,-0c-0.38,-0 -0.706,-0.137 -0.979,-0.409c-0.272,-0.273 -0.408,-0.599 -0.408,-0.978c-0,-0.38 0.136,-0.706 0.408,-0.979c0.273,-0.272 0.599,-0.408 0.979,-0.408c0.379,-0 0.703,0.136 0.972,0.408c0.268,0.273 0.402,0.599 0.402,0.979c0,0.388 -0.134,0.716 -0.402,0.984c-0.269,0.268 -0.593,0.403 -0.972,0.403Zm6.996,-0c-0.371,-0 -0.693,-0.137 -0.965,-0.409c-0.273,-0.273 -0.409,-0.599 -0.409,-0.978c-0,-0.38 0.136,-0.706 0.409,-0.979c0.272,-0.272 0.594,-0.408 0.965,-0.408c0.38,-0 0.706,0.136 0.979,0.408c0.272,0.273 0.408,0.599 0.408,0.979c0,0.379 -0.136,0.705 -0.408,0.978c-0.273,0.272 -0.599,0.409 -0.979,0.409Zm-3.492,-3.282c-0.38,-0 -0.706,-0.136 -0.978,-0.409c-0.273,-0.272 -0.409,-0.598 -0.409,-0.978c0,-0.38 0.136,-0.704 0.409,-0.972c0.272,-0.269 0.598,-0.403 0.978,-0.403c0.372,-0.008 0.696,0.124 0.972,0.396c0.277,0.273 0.415,0.599 0.415,0.979c0,0.38 -0.138,0.706 -0.415,0.978c-0.276,0.273 -0.6,0.409 -0.972,0.409Zm-3.504,-0c-0.38,-0 -0.706,-0.136 -0.979,-0.409c-0.272,-0.272 -0.408,-0.598 -0.408,-0.978c-0,-0.38 0.136,-0.704 0.408,-0.972c0.273,-0.269 0.599,-0.403 0.979,-0.403c0.379,-0.008 0.703,0.124 0.972,0.396c0.268,0.273 0.402,0.599 0.402,0.979c0,0.38 -0.134,0.706 -0.402,0.978c-0.269,0.273 -0.593,0.409 -0.972,0.409Zm6.996,-0c-0.371,-0 -0.693,-0.136 -0.965,-0.409c-0.273,-0.272 -0.409,-0.598 -0.409,-0.978c-0,-0.38 0.136,-0.704 0.409,-0.972c0.272,-0.269 0.594,-0.403 0.965,-0.403c0.38,-0.008 0.706,0.124 0.979,0.396c0.272,0.273 0.408,0.599 0.408,0.979c0,0.38 -0.136,0.706 -0.408,0.978c-0.273,0.273 -0.599,0.409 -0.979,0.409Zm-3.492,-3.27c-0.38,0 -0.706,-0.136 -0.978,-0.408c-0.273,-0.273 -0.409,-0.599 -0.409,-0.979c0,-0.388 0.136,-0.714 0.409,-0.978c0.272,-0.264 0.598,-0.4 0.978,-0.409c0.372,0 0.696,0.135 0.972,0.403c0.277,0.268 0.415,0.596 0.415,0.984c0,0.38 -0.138,0.706 -0.415,0.979c-0.276,0.272 -0.6,0.408 -0.972,0.408Zm-3.504,0c-0.38,0 -0.706,-0.136 -0.979,-0.408c-0.272,-0.273 -0.408,-0.599 -0.408,-0.979c-0,-0.379 0.136,-0.705 0.408,-0.978c0.273,-0.272 0.599,-0.409 0.979,-0.409c0.379,0 0.703,0.137 0.972,0.409c0.268,0.273 0.402,0.599 0.402,0.978c0,0.38 -0.134,0.706 -0.402,0.979c-0.269,0.272 -0.593,0.408 -0.972,0.408Zm6.996,0c-0.371,0 -0.693,-0.136 -0.965,-0.408c-0.273,-0.273 -0.409,-0.599 -0.409,-0.979c-0,-0.388 0.136,-0.714 0.409,-0.978c0.272,-0.264 0.594,-0.4 0.965,-0.409c0.38,0 0.706,0.135 0.979,0.403c0.272,0.268 0.408,0.596 0.408,0.984c0,0.38 -0.136,0.706 -0.408,0.979c-0.273,0.272 -0.599,0.408 -0.979,0.408Z" style="fill:#007aff;fill-rule:nonzero;"/>
</svg>
