<?xml version="1.0" encoding="UTF-8" standalone="no"?>
<!DOCTYPE svg PUBLIC "-//W3C//DTD SVG 1.1//EN" "http://www.w3.org/Graphics/SVG/1.1/DTD/svg11.dtd">
<svg width="20px" height="20px" version="1.1" xmlns="http://www.w3.org/2000/svg" xmlns:xlink="http://www.w3.org/1999/xlink" xml:space="preserve" xmlns:serif="http://www.serif.com/" style="fill-rule:evenodd;clip-rule:evenodd;stroke-linejoin:round;stroke-miterlimit:2;">
    <path d="M9.994,19.988c1.37,-0 2.658,-0.26 3.864,-0.781c1.205,-0.52 2.268,-1.242 3.188,-2.167c0.921,-0.924 1.643,-1.989 2.168,-3.195c0.524,-1.205 0.786,-2.489 0.786,-3.851c0,-1.362 -0.262,-2.646 -0.786,-3.852c-0.525,-1.205 -1.249,-2.27 -2.174,-3.195c-0.924,-0.924 -1.989,-1.647 -3.195,-2.167c-1.205,-0.52 -2.493,-0.78 -3.864,-0.78c-1.362,0 -2.646,0.26 -3.851,0.78c-1.205,0.52 -2.266,1.243 -3.183,2.167c-0.916,0.925 -1.636,1.99 -2.161,3.195c-0.524,1.206 -0.786,2.49 -0.786,3.852c0,1.362 0.262,2.646 0.786,3.851c0.525,1.206 1.247,2.271 2.168,3.195c0.92,0.925 1.983,1.647 3.188,2.167c1.206,0.521 2.49,0.781 3.852,0.781Zm-1.016,-3.381c-0.198,-0 -0.361,-0.066 -0.489,-0.198c-0.128,-0.132 -0.192,-0.298 -0.192,-0.496l0,-11.839c0,-0.198 0.066,-0.363 0.198,-0.495c0.132,-0.132 0.293,-0.198 0.483,-0.198c0.19,-0 0.349,0.066 0.477,0.198c0.128,0.132 0.192,0.297 0.192,0.495l0,11.839c0,0.198 -0.064,0.364 -0.192,0.496c-0.128,0.132 -0.287,0.198 -0.477,0.198Zm4.087,-1.313c-0.198,0 -0.361,-0.066 -0.489,-0.198c-0.128,-0.132 -0.192,-0.293 -0.192,-0.483l-0,-9.251c-0,-0.19 0.064,-0.351 0.192,-0.483c0.128,-0.132 0.291,-0.198 0.489,-0.198c0.19,0 0.351,0.066 0.483,0.198c0.132,0.132 0.198,0.293 0.198,0.483l0,9.251c0,0.19 -0.066,0.351 -0.198,0.483c-0.132,0.132 -0.293,0.198 -0.483,0.198Zm-6.13,-1.35c-0.19,0 -0.351,-0.066 -0.483,-0.198c-0.132,-0.132 -0.198,-0.293 -0.198,-0.483l-0,-6.563c-0,-0.19 0.066,-0.349 0.198,-0.477c0.132,-0.128 0.293,-0.192 0.483,-0.192c0.19,-0 0.351,0.064 0.483,0.192c0.132,0.128 0.198,0.287 0.198,0.477l0,6.563c0,0.19 -0.066,0.351 -0.198,0.483c-0.132,0.132 -0.293,0.198 -0.483,0.198Zm4.074,-0.879c-0.181,0 -0.338,-0.066 -0.47,-0.198c-0.132,-0.132 -0.198,-0.293 -0.198,-0.483l-0,-4.793c-0,-0.19 0.066,-0.351 0.198,-0.483c0.132,-0.132 0.289,-0.198 0.47,-0.198c0.19,0 0.351,0.066 0.483,0.198c0.132,0.132 0.198,0.293 0.198,0.483l0,4.793c0,0.19 -0.066,0.351 -0.198,0.483c-0.132,0.132 -0.293,0.198 -0.483,0.198Zm4.099,-1.152c-0.19,0 -0.351,-0.064 -0.483,-0.192c-0.132,-0.128 -0.198,-0.287 -0.198,-0.476l0,-2.514c0,-0.19 0.066,-0.349 0.198,-0.477c0.132,-0.128 0.293,-0.192 0.483,-0.192c0.19,-0 0.349,0.064 0.477,0.192c0.128,0.128 0.192,0.287 0.192,0.477l0,2.514c0,0.189 -0.064,0.348 -0.192,0.476c-0.128,0.128 -0.287,0.192 -0.477,0.192Zm-10.229,-0.421c-0.181,0 -0.338,-0.066 -0.47,-0.198c-0.132,-0.132 -0.198,-0.293 -0.198,-0.483l-0,-1.647c-0,-0.19 0.066,-0.349 0.198,-0.477c0.132,-0.128 0.289,-0.192 0.47,-0.192c0.19,0 0.351,0.064 0.483,0.192c0.132,0.128 0.198,0.287 0.198,0.477l0,1.647c0,0.19 -0.066,0.351 -0.198,0.483c-0.132,0.132 -0.293,0.198 -0.483,0.198Z" style="fill:#007aff;fill-rule:nonzero;"/>
</svg>
