<?xml version="1.0" encoding="UTF-8" standalone="no"?>
<!DOCTYPE svg PUBLIC "-//W3C//DTD SVG 1.1//EN" "http://www.w3.org/Graphics/SVG/1.1/DTD/svg11.dtd">
<svg width="22px" height="22px" version="1.1" xmlns="http://www.w3.org/2000/svg" xmlns:xlink="http://www.w3.org/1999/xlink" xml:space="preserve" xmlns:serif="http://www.serif.com/" style="fill-rule:evenodd;clip-rule:evenodd;stroke-linejoin:round;stroke-miterlimit:2;">
    <path d="M10.993,22c1.508,0 2.924,-0.286 4.25,-0.859c1.326,-0.572 2.495,-1.367 3.508,-2.385c1.013,-1.018 1.807,-2.19 2.384,-3.517c0.577,-1.327 0.865,-2.74 0.865,-4.239c0,-1.499 -0.288,-2.912 -0.865,-4.239c-0.577,-1.327 -1.374,-2.499 -2.391,-3.517c-1.017,-1.018 -2.188,-1.813 -3.514,-2.385c-1.326,-0.573 -2.743,-0.859 -4.25,-0.859c-1.499,0 -2.911,0.286 -4.237,0.859c-1.326,0.572 -2.493,1.367 -3.501,2.385c-1.008,1.018 -1.8,2.19 -2.377,3.517c-0.577,1.327 -0.865,2.74 -0.865,4.239c-0,1.499 0.288,2.912 0.865,4.239c0.577,1.327 1.371,2.499 2.384,3.517c1.013,1.018 2.182,1.813 3.508,2.385c1.326,0.573 2.738,0.859 4.236,0.859Zm-6.062,-6.911l0,-8.792c0,-0.19 0.068,-0.354 0.205,-0.49c0.136,-0.137 0.295,-0.205 0.476,-0.205c0.191,0 0.355,0.068 0.491,0.205c0.136,0.136 0.204,0.3 0.204,0.49l0,4.158l1.321,-1.363c0.273,-0.273 0.573,-0.409 0.9,-0.409c0.336,-0 0.635,0.136 0.899,0.409l1.866,1.949c0.036,0.045 0.073,0.041 0.109,-0.014l1.839,-1.854l-0.749,-0.736c-0.155,-0.145 -0.196,-0.311 -0.123,-0.497c0.073,-0.186 0.218,-0.311 0.436,-0.375l3.215,-0.831c0.2,-0.055 0.37,-0.014 0.511,0.122c0.14,0.137 0.184,0.3 0.129,0.491l-0.845,3.23c-0.063,0.228 -0.188,0.378 -0.374,0.45c-0.186,0.073 -0.352,0.032 -0.497,-0.122l-0.736,-0.764l-1.962,2.018c-0.272,0.281 -0.576,0.422 -0.912,0.422c-0.327,0 -0.631,-0.141 -0.913,-0.422l-1.839,-1.909c-0.036,-0.054 -0.077,-0.054 -0.123,0l-2.152,2.181l0,2.14c0,0.064 0.027,0.096 0.082,0.096l9.958,-0c0.181,-0 0.34,0.068 0.477,0.204c0.136,0.136 0.204,0.295 0.204,0.477c-0,0.191 -0.068,0.355 -0.204,0.491c-0.137,0.136 -0.296,0.204 -0.477,0.204l-10.476,0c-0.281,0 -0.508,-0.086 -0.681,-0.259c-0.172,-0.172 -0.259,-0.404 -0.259,-0.695Z" style="fill:#8e8e8e;fill-rule:nonzero;"/>
</svg>
