<?xml version="1.0" encoding="UTF-8" standalone="no"?>
<!DOCTYPE svg PUBLIC "-//W3C//DTD SVG 1.1//EN" "http://www.w3.org/Graphics/SVG/1.1/DTD/svg11.dtd">
<svg width="21px" height="20px" version="1.1" xmlns="http://www.w3.org/2000/svg" xmlns:xlink="http://www.w3.org/1999/xlink" xml:space="preserve" xmlns:serif="http://www.serif.com/" style="fill-rule:evenodd;clip-rule:evenodd;stroke-linejoin:round;stroke-miterlimit:2;">
    <path d="M10,20c1.371,0 2.66,-0.26 3.866,-0.781c1.206,-0.52 2.27,-1.243 3.191,-2.168c0.921,-0.925 1.644,-1.991 2.169,-3.197c0.524,-1.206 0.786,-2.491 0.786,-3.854c0,-1.363 -0.262,-2.648 -0.786,-3.854c-0.525,-1.206 -1.25,-2.272 -2.175,-3.197c-0.925,-0.925 -1.991,-1.648 -3.197,-2.168c-1.206,-0.521 -2.495,-0.781 -3.866,-0.781c-1.363,-0 -2.648,0.26 -3.854,0.781c-1.206,0.52 -2.268,1.243 -3.185,2.168c-0.917,0.925 -1.638,1.991 -2.162,3.197c-0.525,1.206 -0.787,2.491 -0.787,3.854c0,1.363 0.262,2.648 0.787,3.854c0.524,1.206 1.247,2.272 2.168,3.197c0.921,0.925 1.985,1.648 3.191,2.168c1.206,0.521 2.491,0.781 3.854,0.781Zm-4.548,-9.541c0,-0.835 0.203,-1.587 0.607,-2.256c0.405,-0.669 0.936,-1.202 1.593,-1.598c0.657,-0.397 1.361,-0.595 2.113,-0.595l0.111,-0l-0.508,-0.533c-0.058,-0.058 -0.105,-0.132 -0.142,-0.223c-0.038,-0.091 -0.056,-0.186 -0.056,-0.285c-0,-0.198 0.068,-0.368 0.204,-0.508c0.137,-0.14 0.308,-0.211 0.514,-0.211c0.091,0 0.182,0.019 0.273,0.056c0.091,0.037 0.165,0.089 0.223,0.155l1.896,1.921c0.124,0.132 0.19,0.303 0.198,0.514c0.009,0.211 -0.058,0.382 -0.198,0.514l-1.908,1.884c-0.141,0.148 -0.302,0.223 -0.484,0.223c-0.206,-0 -0.377,-0.07 -0.514,-0.211c-0.136,-0.14 -0.204,-0.31 -0.204,-0.508c-0,-0.198 0.066,-0.363 0.198,-0.496l0.793,-0.78c-0.041,-0.009 -0.095,-0.013 -0.161,-0.013c-0.553,0 -1.055,0.135 -1.506,0.403c-0.45,0.269 -0.809,0.63 -1.078,1.084c-0.268,0.455 -0.402,0.959 -0.402,1.512c-0,0.554 0.134,1.055 0.402,1.506c0.269,0.45 0.628,0.809 1.078,1.078c0.451,0.268 0.953,0.402 1.506,0.402c0.553,0 1.055,-0.134 1.506,-0.402c0.45,-0.269 0.807,-0.628 1.071,-1.078c0.265,-0.451 0.397,-0.952 0.397,-1.506c-0,-0.215 0.078,-0.399 0.235,-0.551c0.157,-0.153 0.343,-0.23 0.558,-0.23c0.207,0 0.388,0.077 0.545,0.23c0.157,0.152 0.236,0.336 0.236,0.551c-0,0.834 -0.205,1.597 -0.614,2.286c-0.409,0.69 -0.958,1.242 -1.648,1.655c-0.69,0.413 -1.452,0.619 -2.286,0.619c-0.843,0 -1.607,-0.206 -2.292,-0.619c-0.686,-0.413 -1.233,-0.969 -1.642,-1.667c-0.409,-0.698 -0.614,-1.473 -0.614,-2.323Z" style="fill:#007aff;fill-rule:nonzero;"/>
</svg>
