<?xml version="1.0" encoding="UTF-8" standalone="no"?>
<!--
  - SPDX-License-Identifier: Apache-2.0
  -
  - Copyright 2022 Gerrit Grunwald.
  -
  - Licensed under the Apache License, Version 2.0 (the "License");
  - you may not use this file except in compliance with the License.
  - You may obtain a copy of the License at
  -
  -     https://www.apache.org/licenses/LICENSE-2.0
  -
  - Unless required by applicable law or agreed to in writing, software
  - distributed under the License is distributed on an "AS IS" BASIS,
  - WITHOUT WARRANTIES OR CONDITIONS OF ANY KIND, either express or implied.
  - See the License for the specific language governing permissions and
  - limitations under the License.
  -->

<!DOCTYPE svg PUBLIC "-//W3C//DTD SVG 1.1//EN" "http://www.w3.org/Graphics/SVG/1.1/DTD/svg11.dtd">
<svg width="14px" height="14px" version="1.1" xmlns="http://www.w3.org/2000/svg" xmlns:xlink="http://www.w3.org/1999/xlink" xml:space="preserve" xmlns:serif="http://www.serif.com/" style="fill-rule:evenodd;clip-rule:evenodd;stroke-linejoin:round;stroke-miterlimit:2;">
    <path d="M1.228,8.211c-0,0.805 0.149,1.556 0.447,2.254c0.297,0.697 0.711,1.311 1.24,1.84c0.529,0.529 1.142,0.944 1.84,1.244c0.697,0.301 1.446,0.451 2.245,0.451c0.799,0 1.548,-0.15 2.245,-0.451c0.698,-0.3 1.311,-0.715 1.84,-1.244c0.529,-0.529 0.943,-1.143 1.24,-1.84c0.298,-0.698 0.447,-1.449 0.447,-2.254c0,-0.176 -0.058,-0.322 -0.174,-0.438c-0.115,-0.116 -0.264,-0.173 -0.446,-0.173c-0.171,-0 -0.309,0.057 -0.414,0.173c-0.104,0.116 -0.157,0.262 -0.157,0.438c0,0.64 -0.118,1.237 -0.355,1.791c-0.237,0.554 -0.565,1.04 -0.984,1.459c-0.419,0.419 -0.906,0.747 -1.46,0.984c-0.554,0.237 -1.148,0.356 -1.782,0.356c-0.634,-0 -1.228,-0.119 -1.782,-0.356c-0.554,-0.237 -1.041,-0.565 -1.46,-0.984c-0.419,-0.419 -0.747,-0.905 -0.984,-1.459c-0.237,-0.554 -0.355,-1.151 -0.355,-1.791c-0,-0.634 0.118,-1.228 0.355,-1.782c0.237,-0.554 0.565,-1.04 0.984,-1.459c0.419,-0.419 0.906,-0.747 1.46,-0.984c0.554,-0.237 1.148,-0.356 1.782,-0.356c0.215,0 0.42,0.007 0.616,0.021c0.196,0.014 0.379,0.04 0.55,0.078l-1.745,1.72c-0.06,0.061 -0.105,0.126 -0.132,0.195c-0.028,0.069 -0.042,0.142 -0.042,0.219c0,0.171 0.057,0.313 0.17,0.426c0.113,0.113 0.252,0.169 0.418,0.169c0.182,0 0.322,-0.055 0.421,-0.165l2.622,-2.613c0.11,-0.116 0.165,-0.259 0.165,-0.43c0,-0.166 -0.055,-0.306 -0.165,-0.422l-2.622,-2.646c-0.104,-0.121 -0.248,-0.182 -0.43,-0.182c-0.16,0 -0.296,0.059 -0.409,0.178c-0.113,0.118 -0.17,0.263 -0.17,0.434c0,0.077 0.014,0.152 0.042,0.223c0.027,0.072 0.069,0.138 0.124,0.199l1.513,1.488c-0.149,-0.027 -0.3,-0.048 -0.455,-0.062c-0.154,-0.014 -0.311,-0.021 -0.471,-0.021c-0.799,0 -1.548,0.149 -2.245,0.447c-0.698,0.298 -1.311,0.711 -1.84,1.24c-0.529,0.53 -0.943,1.143 -1.24,1.84c-0.298,0.698 -0.447,1.446 -0.447,2.245Z" style="fill:#fff;fill-rule:nonzero;"/>
</svg>
