<?xml version="1.0" encoding="UTF-8" standalone="no"?>
<!DOCTYPE svg PUBLIC "-//W3C//DTD SVG 1.1//EN" "http://www.w3.org/Graphics/SVG/1.1/DTD/svg11.dtd">
<svg width="22px" height="22px" version="1.1" xmlns="http://www.w3.org/2000/svg" xmlns:xlink="http://www.w3.org/1999/xlink" xml:space="preserve" xmlns:serif="http://www.serif.com/" style="fill-rule:evenodd;clip-rule:evenodd;stroke-linejoin:round;stroke-miterlimit:2;">
    <path d="M10.993,-0C17.067,-0 21.998,4.933 21.998,11.01C21.998,17.087 17.067,22.02 10.993,22.02C4.92,22.02 -0.011,17.087 -0.011,11.01C-0.011,4.933 4.92,-0 10.993,-0ZM6.31,6.598L6.31,6.296C6.31,5.916 6.001,5.607 5.621,5.607C5.241,5.607 4.932,5.916 4.932,6.296L4.932,15.359C4.932,15.739 5.241,16.047 5.621,16.047L16.329,16.047C16.709,16.047 17.017,15.739 17.017,15.359C17.017,14.979 16.709,14.67 16.329,14.67L6.386,14.67C6.386,14.67 6.353,14.67 6.329,14.646C6.309,14.625 6.31,14.589 6.31,14.589L6.31,13.919C6.329,13.907 6.347,13.894 6.365,13.88L9.267,11.565C9.267,11.565 12.126,13.86 12.156,13.884C12.301,13.999 12.501,14.044 12.688,14.019C12.815,14.005 12.938,13.959 13.036,13.882C13.062,13.861 16.355,11.223 16.355,11.223C16.594,11.033 16.593,10.725 16.354,10.535C16.115,10.345 15.728,10.345 15.489,10.536L12.597,12.843L9.702,10.534C9.628,10.475 9.54,10.434 9.446,10.412C9.237,10.36 8.999,10.401 8.833,10.533L6.31,12.546L6.31,10.945C6.329,10.933 6.347,10.92 6.365,10.906L9.267,8.591C9.267,8.591 12.126,10.886 12.156,10.91C12.301,11.025 12.501,11.07 12.688,11.045C12.815,11.031 12.938,10.985 13.036,10.908C13.062,10.887 16.355,8.249 16.355,8.249C16.594,8.059 16.593,7.751 16.354,7.561C16.115,7.371 15.728,7.371 15.489,7.562L12.597,9.869L9.702,7.56C9.628,7.501 9.54,7.46 9.446,7.437C9.237,7.386 8.999,7.427 8.833,7.559L6.31,9.572L6.31,7.971C6.329,7.959 6.347,7.946 6.365,7.932L9.267,5.617C9.267,5.617 12.126,7.911 12.156,7.936C12.301,8.051 12.501,8.096 12.688,8.071C12.815,8.057 12.938,8.011 13.036,7.934C13.062,7.913 16.355,5.275 16.355,5.275C16.594,5.085 16.593,4.776 16.354,4.587C16.115,4.397 15.728,4.397 15.489,4.587L12.597,6.895L9.702,4.586C9.628,4.527 9.54,4.486 9.446,4.463C9.237,4.412 8.999,4.453 8.833,4.585L6.31,6.598Z" style="fill:rgb(142,142,142);"/>
</svg>
