<?xml version="1.0" encoding="UTF-8" standalone="no"?>
<!--
  - SPDX-License-Identifier: Apache-2.0
  -
  - Copyright 2022 Gerrit Grunwald.
  -
  - Licensed under the Apache License, Version 2.0 (the "License");
  - you may not use this file except in compliance with the License.
  - You may obtain a copy of the License at
  -
  -     https://www.apache.org/licenses/LICENSE-2.0
  -
  - Unless required by applicable law or agreed to in writing, software
  - distributed under the License is distributed on an "AS IS" BASIS,
  - WITHOUT WARRANTIES OR CONDITIONS OF ANY KIND, either express or implied.
  - See the License for the specific language governing permissions and
  - limitations under the License.
  -->

<!DOCTYPE svg PUBLIC "-//W3C//DTD SVG 1.1//EN" "http://www.w3.org/Graphics/SVG/1.1/DTD/svg11.dtd">
<svg width="14px" height="14px" version="1.1" xmlns="http://www.w3.org/2000/svg" xmlns:xlink="http://www.w3.org/1999/xlink" xml:space="preserve" xmlns:serif="http://www.serif.com/" style="fill-rule:evenodd;clip-rule:evenodd;stroke-linejoin:round;stroke-miterlimit:2;">
    <path d="M1.195,12.162l1.63,0c0.399,0 0.698,-0.095 0.9,-0.284c0.201,-0.19 0.302,-0.473 0.302,-0.847l0,-4.843c0,-0.37 -0.101,-0.65 -0.302,-0.84c-0.202,-0.189 -0.501,-0.284 -0.9,-0.284l-1.63,-0c-0.394,-0 -0.691,0.095 -0.893,0.284c-0.201,0.19 -0.302,0.47 -0.302,0.84l0,4.843c0,0.374 0.101,0.657 0.302,0.847c0.202,0.189 0.499,0.284 0.893,0.284Zm4.99,0l1.63,0c0.399,0 0.698,-0.095 0.9,-0.284c0.201,-0.19 0.302,-0.473 0.302,-0.847l0,-6.452c0,-0.375 -0.101,-0.656 -0.302,-0.844c-0.202,-0.187 -0.501,-0.281 -0.9,-0.281l-1.63,0c-0.394,0 -0.693,0.094 -0.896,0.281c-0.204,0.188 -0.306,0.469 -0.306,0.844l-0,6.452c-0,0.374 0.102,0.657 0.306,0.847c0.203,0.189 0.502,0.284 0.896,0.284Zm4.983,0l1.63,0c0.398,0 0.698,-0.095 0.9,-0.284c0.201,-0.19 0.302,-0.473 0.302,-0.847l0,-8.069c0,-0.37 -0.101,-0.65 -0.302,-0.84c-0.202,-0.189 -0.502,-0.284 -0.9,-0.284l-1.63,-0c-0.394,-0 -0.691,0.095 -0.893,0.284c-0.201,0.19 -0.302,0.47 -0.302,0.84l-0,8.069c-0,0.374 0.101,0.657 0.302,0.847c0.202,0.189 0.499,0.284 0.893,0.284Z" style="fill-rule:nonzero;"/>
</svg>
